<svg xmlns="http://www.w3.org/2000/svg" width="30" height="30" viewBox="0 0 30 30">
  <g id="icon-bag" transform="translate(2647.5 -2991.5)">
    <rect id="Rect치ngulo_309" data-name="Rect치ngulo 309" width="30" height="30" transform="translate(-2647.5 2991.5)" fill="none"/>
    <g id="Grupo_553" data-name="Grupo 553" transform="translate(-3 -94)">
      <g id="Trazado_402" data-name="Trazado 402" transform="translate(-2637 3094.231)" fill="none" stroke-linejoin="round">
        <path d="M1.808,1H12.659l1.808,14.468H0Z" stroke="none"/>
        <path d="M 1.808444976806641 1.000004768371582 L 4.76837158203125e-06 15.46752452850342 L 14.46752452850342 15.46752452850342 L 12.65908432006836 1.000004768371582 L 1.808444976806641 1.000004768371582 M 1.808444976806641 -0.9999961853027344 L 12.65908432006836 -0.9999961853027344 C 13.66773414611816 -0.9999961853027344 14.51853466033936 -0.2489261627197266 14.64364433288574 0.7519350051879883 L 16.45208549499512 15.21945476531982 C 16.52323532104492 15.7886848449707 16.34653472900391 16.36106491088867 15.96688461303711 16.79113388061523 C 15.58723449707031 17.22119522094727 15.041184425354 17.46752548217773 14.46752452850342 17.46752548217773 L 4.76837158203125e-06 17.46752548217773 C -0.5736551284790039 17.46752548217773 -1.119705200195312 17.22119522094727 -1.499355316162109 16.79113388061523 C -1.879005432128906 16.36106491088867 -2.055706024169922 15.7886848449707 -1.984556198120117 15.21945476531982 L -0.1761150360107422 0.7519350051879883 C -0.05100536346435547 -0.2489261627197266 0.7997941970825195 -0.9999961853027344 1.808444976806641 -0.9999961853027344 Z" stroke="none" fill="#fff"/>
      </g>
      <path id="Uni칩n_3" data-name="Uni칩n 3" d="M6.579,8.994V3.5a.517.517,0,0,1,0-.076,1.621,1.621,0,0,0-.392-1.1A2.462,2.462,0,0,0,4.34,1.736a.872.872,0,0,1-.18-.019.872.872,0,0,1-.18.019,2.462,2.462,0,0,0-1.851.586,1.616,1.616,0,0,0-.391,1.1.6.6,0,0,1,0,.076v5.5A.868.868,0,0,1,0,8.994V3.527A3.33,3.33,0,0,1,.833,1.165,4.06,4.06,0,0,1,3.979,0a.872.872,0,0,1,.18.019A.872.872,0,0,1,4.34,0,4.059,4.059,0,0,1,7.486,1.165a3.327,3.327,0,0,1,.829,2.362V8.994a.868.868,0,0,1-1.736,0Z" transform="translate(-2633.926 3088)" fill="#fff"/>
    </g>
  </g>
</svg>
