<svg xmlns="http://www.w3.org/2000/svg" width="21.151" height="28.022" viewBox="0 0 21.151 28.022">
  <path id="Icon_weather-lightning" data-name="Icon weather-lightning" d="M9.552,35.114h.588L20.5,19.777q.2-.407-.226-.407H16l4.5-8.211c.136-.271.03-.407-.3-.407h-5.74a.547.547,0,0,0-.437.271L9.838,22.172c-.03.271.06.407.286.407h4.143Zm12.806-9.536h.407l7.864-11.555a.343.343,0,0,0,.06-.3c-.03-.075-.121-.105-.256-.105H27.269l3.284-6.071q.271-.452-.271-.452H26.154a.486.486,0,0,0-.452.286l-3.134,8.256a.325.325,0,0,0,.015.316.335.335,0,0,0,.286.105h3.073Z" transform="translate(-9.552 -7.092)" fill="#fff"/>
</svg>
